<svg width="65" height="65" viewBox="0 0 65 65" fill="none" xmlns="http://www.w3.org/2000/svg">
<path d="M39.3978 40.5663H25.6035C24.9547 40.5657 24.3326 40.3076 23.8738 39.8488C23.415 39.39 23.1569 38.7679 23.1562 38.1191V30.1813C23.1569 29.5324 23.415 28.9103 23.8738 28.4514C24.3325 27.9925 24.9546 27.7343 25.6035 27.7334H39.3978C40.0467 27.7343 40.6688 27.9925 41.1275 28.4514C41.5863 28.9103 41.8444 29.5324 41.8451 30.1813V38.1191C41.8444 38.7679 41.5863 39.39 41.1275 39.8488C40.6687 40.3076 40.0466 40.5657 39.3978 40.5663ZM25.6035 29.8134C25.5061 29.8137 25.4128 29.8526 25.344 29.9216C25.2751 29.9905 25.2364 30.0839 25.2362 30.1813V38.1191C25.2364 38.2164 25.2752 38.3098 25.344 38.3786C25.4128 38.4474 25.5062 38.4862 25.6035 38.4863H39.3978C39.4951 38.4862 39.5885 38.4474 39.6573 38.3786C39.7261 38.3098 39.7649 38.2164 39.7651 38.1191V30.1813C39.7649 30.0839 39.7262 29.9905 39.6573 29.9216C39.5885 29.8526 39.4952 29.8137 39.3978 29.8134H25.6035Z" fill="#C956D7"/>
<path d="M37.6252 29.8136H27.3838C27.2254 29.8136 27.0692 29.7774 26.927 29.7079C26.7847 29.6384 26.6602 29.5373 26.563 29.4123C26.4658 29.2874 26.3983 29.1419 26.3659 28.9869C26.3334 28.8319 26.3367 28.6716 26.3756 28.5181L27.2044 25.2551C27.5404 23.9298 28.453 23.0737 29.5281 23.0737H35.4808C36.5559 23.0737 37.4685 23.9298 37.8046 25.2551L38.6333 28.5181C38.6722 28.6716 38.6755 28.8319 38.6431 28.9869C38.6106 29.1419 38.5432 29.2874 38.4459 29.4123C38.3487 29.5373 38.2242 29.6384 38.082 29.7079C37.9397 29.7774 37.7835 29.8136 37.6252 29.8136ZM28.7202 27.7336H36.2881L35.7889 25.7667C35.6856 25.3598 35.512 25.1888 35.4555 25.1537H29.5535C29.4969 25.1888 29.3234 25.3598 29.22 25.7667L28.7202 27.7336Z" fill="#C956D7"/>
<path d="M32.5009 59.391C32.2251 59.391 31.9606 59.2814 31.7655 59.0864C31.5705 58.8913 31.4609 58.6268 31.4609 58.351V39.5263C31.4609 39.2505 31.5705 38.986 31.7655 38.7909C31.9606 38.5959 32.2251 38.4863 32.5009 38.4863C32.7768 38.4863 33.0413 38.5959 33.2363 38.7909C33.4314 38.986 33.5409 39.2505 33.5409 39.5263V58.351C33.5409 58.6268 33.4314 58.8913 33.2363 59.0864C33.0413 59.2814 32.7768 59.391 32.5009 59.391Z" fill="#C956D7"/>
<path d="M25.8911 59.3911C25.6942 59.391 25.5014 59.335 25.3351 59.2297C25.1687 59.1243 25.0357 58.9739 24.9515 58.796C24.8673 58.618 24.8353 58.4198 24.8593 58.2243C24.8833 58.0289 24.9623 57.8443 25.0871 57.692L31.6969 49.6268C31.8718 49.4135 32.1243 49.2783 32.3988 49.2512C32.6733 49.224 32.9474 49.307 33.1607 49.4818C33.3741 49.6567 33.5092 49.9092 33.5364 50.1837C33.5636 50.4582 33.4806 50.7323 33.3057 50.9457L26.6958 59.0102C26.5983 59.1293 26.4755 59.2252 26.3363 59.2911C26.1971 59.357 26.0451 59.3911 25.8911 59.3911Z" fill="#C956D7"/>
<path d="M39.1106 59.3911C38.9566 59.3911 38.8046 59.357 38.6654 59.2911C38.5263 59.2252 38.4035 59.1293 38.3059 59.0102L31.6967 50.9456C31.6101 50.84 31.5451 50.7184 31.5056 50.5876C31.466 50.4569 31.4525 50.3197 31.466 50.1837C31.4795 50.0478 31.5196 49.9159 31.584 49.7954C31.6485 49.675 31.736 49.5684 31.8416 49.4818C31.9473 49.3952 32.0689 49.3303 32.1997 49.2907C32.3304 49.2511 32.4676 49.2377 32.6036 49.2512C32.7395 49.2646 32.8714 49.3047 32.9919 49.3692C33.1123 49.4336 33.2188 49.5212 33.3054 49.6268L39.9146 57.692C40.0394 57.8443 40.1184 58.0289 40.1424 58.2243C40.1664 58.4198 40.1344 58.618 40.0502 58.7959C39.966 58.9739 39.833 59.1243 39.6666 59.2297C39.5003 59.335 39.3075 59.391 39.1106 59.3911Z" fill="#C956D7"/>
<path d="M37.4394 33.54H36.3994C36.1235 33.54 35.859 33.4304 35.664 33.2354C35.4689 33.0403 35.3594 32.7758 35.3594 32.5C35.3594 32.2241 35.4689 31.9596 35.664 31.7646C35.859 31.5695 36.1235 31.46 36.3994 31.46H37.4394C37.7152 31.46 37.9797 31.5695 38.1748 31.7646C38.3698 31.9596 38.4794 32.2241 38.4794 32.5C38.4794 32.7758 38.3698 33.0403 38.1748 33.2354C37.9797 33.4304 37.7152 33.54 37.4394 33.54Z" fill="#C956D7"/>
<path d="M37.4394 36.8393H36.3994C36.1235 36.8393 35.859 36.7297 35.664 36.5347C35.4689 36.3396 35.3594 36.0751 35.3594 35.7993C35.3594 35.5235 35.4689 35.2589 35.664 35.0639C35.859 34.8688 36.1235 34.7593 36.3994 34.7593H37.4394C37.7152 34.7593 37.9797 34.8688 38.1748 35.0639C38.3698 35.2589 38.4794 35.5235 38.4794 35.7993C38.4794 36.0751 38.3698 36.3396 38.1748 36.5347C37.9797 36.7297 37.7152 36.8393 37.4394 36.8393Z" fill="#C956D7"/>
<path d="M33.5812 37.738H27.165C26.8892 37.738 26.6246 37.6285 26.4296 37.4334C26.2346 37.2384 26.125 36.9739 26.125 36.698V31.7255C26.125 31.4497 26.2346 31.1852 26.4296 30.9902C26.6246 30.7951 26.8892 30.6855 27.165 30.6855H33.5831C33.8589 30.6855 34.1235 30.7951 34.3185 30.9902C34.5135 31.1852 34.6231 31.4497 34.6231 31.7255V36.698C34.6231 36.8348 34.5961 36.9702 34.5438 37.0965C34.4914 37.2228 34.4146 37.3375 34.3178 37.4341C34.221 37.5307 34.1061 37.6073 33.9797 37.6594C33.8533 37.7116 33.7179 37.7383 33.5812 37.738ZM28.2031 35.658H32.5412V32.7655H28.205L28.2031 35.658Z" fill="#C956D7"/>
<path d="M53.2119 54.6072C52.936 54.6072 52.6715 54.4977 52.4765 54.3026C52.2814 54.1076 52.1719 53.8431 52.1719 53.5672V16.8422C52.1719 16.5664 52.2814 16.3019 52.4765 16.1069C52.6715 15.9118 52.936 15.8022 53.2119 15.8022C53.4877 15.8022 53.7522 15.9118 53.9473 16.1069C54.1423 16.3019 54.2519 16.5664 54.2519 16.8422V53.5672C54.2519 53.8431 54.1423 54.1076 53.9473 54.3026C53.7522 54.4977 53.4877 54.6072 53.2119 54.6072Z" fill="#C956D7"/>
<path d="M48.0075 54.6075C47.8186 54.6073 47.6332 54.5556 47.4714 54.4579C47.3096 54.3603 47.1775 54.2204 47.0892 54.0534C47.0009 53.8863 46.9598 53.6983 46.9704 53.5097C46.9809 53.321 47.0426 53.1387 47.1489 52.9825L52.3625 45.3125C52.5177 45.0844 52.7571 44.9273 53.0281 44.8758C53.299 44.8242 53.5794 44.8824 53.8075 45.0375C54.0356 45.1927 54.1927 45.4321 54.2442 45.7031C54.2958 45.9741 54.2376 46.2544 54.0824 46.4825L48.8688 54.1525C48.7733 54.2929 48.6448 54.4077 48.4947 54.4871C48.3446 54.5664 48.1773 54.6077 48.0075 54.6075Z" fill="#C956D7"/>
<path d="M58.4951 54.7099C58.3255 54.71 58.1583 54.6686 58.0083 54.5893C57.8583 54.51 57.73 54.3952 57.6345 54.2549L52.352 46.4854C52.1968 46.2573 52.1386 45.977 52.1902 45.706C52.2418 45.435 52.3989 45.1956 52.6269 45.0405C52.855 44.8853 53.1354 44.8271 53.4064 44.8787C53.6773 44.9303 53.9167 45.0873 54.0719 45.3154L59.3551 53.0849C59.4614 53.2412 59.5231 53.4235 59.5336 53.6122C59.5441 53.8009 59.503 53.9889 59.4146 54.156C59.3262 54.3231 59.194 54.463 59.0321 54.5606C58.8702 54.6582 58.6848 54.7098 58.4958 54.7099H58.4951Z" fill="#C956D7"/>
<path d="M53.2181 17.8819C52.98 17.882 52.7492 17.8003 52.564 17.6507C52.3789 17.501 52.2507 17.2924 52.2009 17.0596L50.9139 11.0614C50.8822 10.9143 50.8829 10.7621 50.9158 10.6153C50.9487 10.4685 51.0131 10.3306 51.1045 10.2111C51.1959 10.0916 51.3121 9.99332 51.4452 9.92309C51.5783 9.85287 51.725 9.81235 51.8752 9.80433L55.7804 9.59568C56.5151 9.55436 57.2402 9.77755 57.8245 10.2248C58.4088 10.6721 58.8135 11.3139 58.9654 12.0338L59.1468 12.8697C59.3036 13.5888 59.1975 14.3403 58.8477 14.9878C58.4979 15.6354 57.9277 16.1361 57.2403 16.3992L53.5932 17.8097C53.4737 17.8567 53.3465 17.8812 53.2181 17.8819ZM53.2032 11.8167L53.9793 15.432L56.4896 14.457C56.7144 14.3709 56.901 14.207 57.0155 13.9951C57.13 13.7832 57.1648 13.5373 57.1136 13.302L56.9342 12.468C56.885 12.2325 56.7531 12.0225 56.5622 11.876C56.3714 11.7295 56.1343 11.6564 55.8942 11.6698L53.2032 11.8167Z" fill="#C956D7"/>
<path d="M50.1086 18.5499C49.8708 18.5498 49.6401 18.4682 49.4551 18.3187C49.2701 18.1692 49.142 17.9608 49.092 17.7283L47.8044 11.7301C47.7757 11.5965 47.7737 11.4586 47.7983 11.3243C47.823 11.19 47.8738 11.0618 47.948 10.9471C48.0222 10.8324 48.1182 10.7335 48.2307 10.6559C48.3431 10.5784 48.4697 10.5237 48.6032 10.4951L51.7154 9.82687C51.985 9.769 52.2666 9.82058 52.4982 9.97027C52.7298 10.1199 52.8925 10.3555 52.9504 10.6251L54.2381 16.6239C54.2959 16.8935 54.2444 17.1751 54.0947 17.4067C53.945 17.6383 53.7095 17.8009 53.4399 17.8589L50.327 18.5252C50.2553 18.5411 50.1821 18.5494 50.1086 18.5499ZM50.056 12.3099L50.9075 16.2749L51.9865 16.0435L51.1356 12.0785L50.056 12.3099Z" fill="#C956D7"/>
<path d="M44.3745 26.4595C44.1366 26.4594 43.906 26.3779 43.721 26.2284C43.536 26.0788 43.4078 25.8704 43.3579 25.6379L39.3279 6.86719C39.2857 6.67071 39.3013 6.46621 39.3729 6.27843C39.4445 6.09066 39.5689 5.92764 39.7312 5.8091C39.8935 5.69055 40.0866 5.62156 40.2873 5.61047C40.4879 5.59938 40.6875 5.64666 40.8619 5.74659L49.345 10.6125C49.4715 10.6851 49.5813 10.7835 49.6673 10.9013C49.7533 11.0191 49.8136 11.1537 49.8442 11.2963L51.1293 17.2834C51.1605 17.4258 51.1615 17.5731 51.1322 17.7159C51.1029 17.8587 51.0438 17.9937 50.959 18.1122L45.2169 26.0298C45.1204 26.1629 44.9937 26.2713 44.8473 26.3459C44.7009 26.4206 44.5388 26.4595 44.3745 26.4595ZM41.8525 8.70994L44.9016 22.9183L48.9999 17.2633L47.9092 12.1829L41.8525 8.70994Z" fill="#C956D7"/>
<path d="M11.7822 54.6072C11.5064 54.6072 11.2418 54.4977 11.0468 54.3026C10.8518 54.1076 10.7422 53.8431 10.7422 53.5672V16.8422C10.7422 16.5664 10.8518 16.3019 11.0468 16.1069C11.2418 15.9118 11.5064 15.8022 11.7822 15.8022C12.058 15.8022 12.3225 15.9118 12.5176 16.1069C12.7126 16.3019 12.8222 16.5664 12.8222 16.8422V53.5672C12.8222 53.8431 12.7126 54.1076 12.5176 54.3026C12.3225 54.4977 12.058 54.6072 11.7822 54.6072Z" fill="#C956D7"/>
<path d="M16.9972 54.6075C16.8274 54.6077 16.6602 54.5664 16.51 54.4871C16.3599 54.4077 16.2315 54.2929 16.136 54.1525L10.9223 46.4825C10.7672 46.2544 10.709 45.9741 10.7605 45.7031C10.8121 45.4321 10.9692 45.1927 11.1973 45.0375C11.4253 44.8824 11.7057 44.8242 11.9767 44.8758C12.2477 44.9273 12.4871 45.0844 12.6422 45.3125L17.8559 52.9825C17.9622 53.1387 18.0239 53.321 18.0344 53.5097C18.0449 53.6983 18.0038 53.8863 17.9155 54.0534C17.8272 54.2204 17.6951 54.3603 17.5333 54.4579C17.3715 54.5556 17.1862 54.6073 16.9972 54.6075Z" fill="#C956D7"/>
<path d="M6.50037 54.7099C6.31135 54.7098 6.12593 54.6582 5.96404 54.5606C5.80216 54.463 5.66993 54.3231 5.58157 54.156C5.4932 53.9889 5.45205 53.8009 5.46254 53.6122C5.47302 53.4235 5.53474 53.2412 5.64107 53.0849L10.9243 45.3154C11.0794 45.0873 11.3188 44.9303 11.5898 44.8787C11.8608 44.8271 12.1411 44.8853 12.3692 45.0405C12.5973 45.1956 12.7544 45.435 12.806 45.706C12.8575 45.977 12.7993 46.2573 12.6442 46.4854L7.36032 54.2542C7.26501 54.3945 7.13682 54.5094 6.98693 54.5888C6.83704 54.6683 6.67 54.7098 6.50037 54.7099Z" fill="#C956D7"/>
<path d="M11.7806 17.8819C11.6523 17.8818 11.5252 17.858 11.4055 17.8117L7.75838 16.3993C7.07103 16.1362 6.50074 15.6354 6.15097 14.9879C5.80119 14.3403 5.6951 13.5888 5.85193 12.8698L6.03068 12.0358C6.18244 11.3158 6.58715 10.6739 7.17146 10.2266C7.75576 9.77935 8.48099 9.55621 9.21568 9.59767L13.1209 9.80631C13.2711 9.81433 13.4178 9.85485 13.5509 9.92508C13.684 9.9953 13.8002 10.0936 13.8916 10.2131C13.983 10.3326 14.0474 10.4705 14.0803 10.6173C14.1132 10.7641 14.1139 10.9163 14.0822 11.0634L12.7952 17.0616C12.7454 17.2944 12.6172 17.503 12.4321 17.6527C12.2469 17.8023 12.016 17.8839 11.778 17.8839L11.7806 17.8819ZM8.06453 12.4707L7.88513 13.3046C7.83392 13.5399 7.8687 13.7858 7.98317 13.9977C8.09765 14.2096 8.28424 14.3735 8.50913 14.4597L11.0194 15.4347L11.7955 11.8194L9.10713 11.6751C8.86694 11.6616 8.62989 11.7347 8.43904 11.8812C8.2482 12.0277 8.11624 12.2378 8.06713 12.4733L8.06453 12.4707Z" fill="#C956D7"/>
<path d="M14.8948 18.5499C14.8214 18.55 14.7482 18.5424 14.6764 18.5271L11.5635 17.8589C11.294 17.8009 11.0584 17.6383 10.9087 17.4067C10.7591 17.1751 10.7075 16.8935 10.7653 16.6239L12.053 10.6251C12.111 10.3555 12.2736 10.1199 12.5052 9.97027C12.7368 9.82058 13.0184 9.769 13.288 9.82687L16.4002 10.4951C16.5337 10.5237 16.6603 10.5784 16.7728 10.6559C16.8852 10.7335 16.9812 10.8324 17.0554 10.9471C17.1296 11.0618 17.1805 11.19 17.2051 11.3243C17.2298 11.4586 17.2277 11.5965 17.199 11.7301L15.9114 17.7283C15.8614 17.9608 15.7333 18.1692 15.5483 18.3187C15.3633 18.4682 15.1327 18.5498 14.8948 18.5499ZM13.0169 16.0435L14.0959 16.2749L14.9474 12.3099L13.8684 12.0778L13.0169 16.0435Z" fill="#C956D7"/>
<path d="M20.623 26.4595C20.4582 26.46 20.2956 26.4212 20.1487 26.3465C20.0018 26.2718 19.8747 26.1633 19.778 26.0298L14.0418 18.1122C13.9561 17.9941 13.8963 17.8592 13.8662 17.7164C13.836 17.5736 13.8363 17.4261 13.8669 17.2834L15.152 11.2963C15.1826 11.1537 15.2428 11.0191 15.3288 10.9013C15.4148 10.7835 15.5247 10.6851 15.6512 10.6125L24.1343 5.74659C24.3087 5.64666 24.5082 5.59938 24.7089 5.61047C24.9095 5.62156 25.1027 5.69055 25.265 5.8091C25.4272 5.92764 25.5517 6.09066 25.6233 6.27843C25.6949 6.46621 25.7105 6.67071 25.6683 6.86719L21.6383 25.6379C21.5884 25.8704 21.4602 26.0788 21.2752 26.2284C21.0902 26.3779 20.8596 26.4594 20.6217 26.4595H20.623ZM15.9976 17.2665L20.0959 22.9215L23.145 8.70994L17.0883 12.1842L15.9976 17.2665Z" fill="#C956D7"/>
</svg>
