<svg width="65" height="65" viewBox="0 0 65 65" fill="none" xmlns="http://www.w3.org/2000/svg">
<path d="M29.4531 11.1719C29.4531 11.3541 29.5022 11.533 29.5951 11.6898C29.688 11.8466 29.8215 11.9755 29.9814 12.0629L32.9521 13.6873L34.6102 17.657C34.6874 17.8419 34.8176 17.9998 34.9844 18.1109C35.1511 18.2219 35.347 18.2812 35.5474 18.2812C35.7477 18.2812 35.9436 18.2219 36.1104 18.1109C36.2772 17.9998 36.4073 17.8419 36.4845 17.657L38.1427 13.6873L41.1134 12.0629C41.2733 11.9755 41.4067 11.8466 41.4997 11.6898C41.5927 11.533 41.6417 11.3541 41.6417 11.1719C41.6417 10.9896 41.5927 10.8107 41.4997 10.6539C41.4067 10.4971 41.2733 10.3682 41.1134 10.2808L38.1427 8.6564L36.484 4.6867C36.4068 4.50182 36.2766 4.34391 36.1099 4.23284C35.9431 4.12176 35.7472 4.0625 35.5469 4.0625C35.3465 4.0625 35.1506 4.12176 34.9839 4.23284C34.8171 4.34391 34.6869 4.50182 34.6097 4.6867L32.9516 8.6564L29.9809 10.2808C29.8211 10.3683 29.6877 10.4972 29.5949 10.654C29.502 10.8108 29.4531 10.9896 29.4531 11.1719ZM34.2393 10.2676C34.4416 10.1569 34.6002 9.98067 34.6891 9.76788L35.5469 7.71314L36.4052 9.76788C36.4941 9.98067 36.6527 10.1569 36.855 10.2676L38.5084 11.1719L36.8545 12.0761C36.6522 12.1868 36.4936 12.363 36.4047 12.5758L35.5469 14.6306L34.6885 12.5758C34.5997 12.363 34.4411 12.1868 34.2388 12.0761L32.5853 11.1719L34.2393 10.2676Z" fill="#C956D7"/>
<path d="M57.8906 16.25C56.8946 16.2493 55.9203 16.5418 55.0893 17.091C54.2583 17.6401 53.6074 18.4217 53.2175 19.3383C52.8277 20.2549 52.7162 21.266 52.897 22.2455C53.0779 23.225 53.543 24.1297 54.2344 24.8467C53.603 25.2443 53.1396 25.86 52.9324 26.5768C52.7252 27.2936 52.7886 28.0616 53.1105 28.7347L50.8536 30.9916C50.1521 31.6927 49.4112 32.3532 48.6345 32.9699C48.7105 32.8249 48.7502 32.6637 48.75 32.5V18.9328C49.2658 18.348 49.6024 17.6271 49.7196 16.8561C49.8368 16.0852 49.7296 15.2968 49.4109 14.5851C49.0922 13.8735 48.5753 13.2686 47.9222 12.8426C47.269 12.4167 46.507 12.1878 45.7272 12.1832C44.9474 12.1786 44.1828 12.3985 43.5246 12.8167C42.8665 13.2348 42.3425 13.8336 42.0154 14.5415C41.6883 15.2493 41.5718 16.0364 41.6799 16.8086C41.788 17.5809 42.116 18.3057 42.6249 18.8966C39.8813 21.4694 36.2612 22.9012 32.5 22.9012C28.7388 22.9012 25.1187 21.4694 22.3751 18.8966C22.884 18.3057 23.212 17.5809 23.3201 16.8086C23.4282 16.0364 23.3117 15.2493 22.9846 14.5415C22.6575 13.8336 22.1335 13.2348 21.4754 12.8167C20.8172 12.3985 20.0526 12.1786 19.2728 12.1832C18.493 12.1878 17.731 12.4167 17.0779 12.8426C16.4247 13.2686 15.9078 13.8735 15.5891 14.5851C15.2704 15.2968 15.1632 16.0852 15.2804 16.8561C15.3976 17.6271 15.7342 18.348 16.25 18.9328V32.5C16.2499 32.6637 16.2897 32.8249 16.3658 32.9698C15.5891 32.353 14.8481 31.6925 14.1466 30.9914L11.8898 28.7347C12.2116 28.0615 12.275 27.2935 12.0677 26.5767C11.8605 25.8599 11.3971 25.2442 10.7656 24.8467C11.4571 24.1292 11.9222 23.2243 12.1031 22.2444C12.284 21.2646 12.1726 20.2532 11.7829 19.3362C11.3931 18.4192 10.7422 17.6371 9.91118 17.0873C9.08016 16.5376 8.10578 16.2444 7.10938 16.2444C6.11298 16.2444 5.13859 16.5376 4.30758 17.0873C3.47656 17.6371 2.82564 18.4192 2.43588 19.3362C2.04612 20.2532 1.93475 21.2646 2.11563 22.2444C2.29651 23.2243 2.76165 24.1292 3.45313 24.8467C2.96909 25.1516 2.58077 25.5868 2.33266 26.1023C2.08455 26.6178 1.98669 27.1928 2.05029 27.7614C2.11389 28.3299 2.33638 28.8691 2.69227 29.317C3.04816 29.765 3.52304 30.1036 4.0625 30.2941V57.0462C3.46936 57.2546 2.95548 57.642 2.59168 58.1547C2.22789 58.6675 2.03208 59.2805 2.03125 59.9092V61.9531C2.03125 62.2225 2.13826 62.4808 2.32872 62.6713C2.51919 62.8618 2.77752 62.9688 3.04688 62.9688H11.1719C11.4412 62.9688 11.6996 62.8618 11.89 62.6713C12.0805 62.4808 12.1875 62.2225 12.1875 61.9531V59.9092C12.1867 59.2805 11.9909 58.6675 11.6271 58.1547C11.2633 57.6419 10.7494 57.2545 10.1563 57.046V34.952L10.9765 35.7721C13.5856 38.386 16.651 40.5004 20.0213 42.0107L13.2586 61.6221C13.2059 61.775 13.1904 61.9384 13.2136 62.0985C13.2367 62.2587 13.2978 62.411 13.3918 62.5427C13.4857 62.6745 13.6098 62.7819 13.7536 62.856C13.8975 62.9301 14.0569 62.9688 14.2188 62.9688H50.7813C50.9431 62.9688 51.1025 62.9301 51.2464 62.856C51.3902 62.7819 51.5143 62.6745 51.6082 62.5427C51.7022 62.411 51.7633 62.2587 51.7864 62.0985C51.8096 61.9384 51.7942 61.775 51.7414 61.6221L44.9795 42.0106C48.3497 40.5003 51.4151 38.386 54.0241 35.7721L54.8444 34.952V57.0462C54.2511 57.2545 53.7371 57.6418 53.3732 58.1546C53.0093 58.6674 52.8134 59.2804 52.8125 59.9092V61.9531C52.8125 62.2225 52.9195 62.4808 53.11 62.6713C53.3004 62.8618 53.5588 62.9688 53.8281 62.9688H61.9531C62.2225 62.9688 62.4808 62.8618 62.6713 62.6713C62.8618 62.4808 62.9688 62.2225 62.9688 61.9531V59.9092C62.968 59.2805 62.7722 58.6675 62.4084 58.1547C62.0446 57.6419 61.5307 57.2545 60.9375 57.046V30.2941C61.477 30.1036 61.9519 29.765 62.3077 29.317C62.6636 28.8691 62.8861 28.3299 62.9497 27.7614C63.0133 27.1928 62.9155 26.6178 62.6673 26.1023C62.4192 25.5868 62.0309 25.1516 61.5469 24.8467C62.2383 24.1297 62.7034 23.225 62.8842 22.2455C63.065 21.266 62.9536 20.2549 62.5637 19.3383C62.1739 18.4217 61.5229 17.6401 60.6919 17.091C59.8609 16.5418 58.8867 16.2493 57.8906 16.25ZM57.8906 18.2813C58.4932 18.2813 59.0823 18.46 59.5834 18.7948C60.0844 19.1296 60.475 19.6054 60.7056 20.1622C60.9362 20.7189 60.9965 21.3315 60.879 21.9226C60.7614 22.5136 60.4712 23.0565 60.0451 23.4826C59.619 23.9087 59.0761 24.1989 58.485 24.3165C57.894 24.434 57.2814 24.3737 56.7246 24.1431C56.1679 23.9125 55.692 23.522 55.3572 23.0209C55.0224 22.5198 54.8438 21.9308 54.8438 21.3281C54.8447 20.5204 55.166 19.7459 55.7372 19.1747C56.3084 18.6035 57.0828 18.2822 57.8906 18.2813ZM56.875 56.875V30.4688H58.9063V56.875H56.875ZM44.6875 20.1839C45.3537 20.3554 46.0525 20.3554 46.7188 20.1839V31.4844H44.6875V20.1839ZM45.7031 14.2188C46.1049 14.2188 46.4976 14.3379 46.8316 14.5611C47.1657 14.7843 47.426 15.1015 47.5798 15.4727C47.7335 15.8439 47.7737 16.2523 47.6954 16.6463C47.617 17.0403 47.4235 17.4023 47.1394 17.6863C46.8554 17.9704 46.4934 18.1639 46.0994 18.2422C45.7054 18.3206 45.297 18.2804 44.9258 18.1267C44.5546 17.9729 44.2374 17.7126 44.0142 17.3785C43.791 17.0445 43.6719 16.6518 43.6719 16.25C43.6725 15.7115 43.8867 15.1952 44.2675 14.8144C44.6483 14.4336 45.1646 14.2194 45.7031 14.2188ZM18.2813 20.1839C18.9475 20.3554 19.6463 20.3554 20.3125 20.1839V31.4844H18.2813V20.1839ZM19.2969 14.2188C19.6986 14.2188 20.0913 14.3379 20.4254 14.5611C20.7594 14.7843 21.0198 15.1015 21.1735 15.4727C21.3272 15.8439 21.3675 16.2523 21.2891 16.6463C21.2107 17.0403 21.0173 17.4023 20.7332 17.6863C20.4491 17.9704 20.0872 18.1639 19.6932 18.2422C19.2991 18.3206 18.8907 18.2804 18.5196 18.1267C18.1484 17.9729 17.8312 17.7126 17.608 17.3785C17.3848 17.0445 17.2656 16.6518 17.2656 16.25C17.2663 15.7115 17.4805 15.1952 17.8613 14.8144C18.2421 14.4336 18.7584 14.2194 19.2969 14.2188ZM17.2656 33.5156H21.3281C21.5975 33.5156 21.8558 33.4086 22.0463 33.2182C22.2367 33.0277 22.3438 32.7694 22.3438 32.5V21.5264C25.2685 23.7364 28.8342 24.9321 32.5 24.9321C36.1658 24.9321 39.7315 23.7364 42.6563 21.5264V32.5C42.6563 32.7694 42.7633 33.0277 42.9537 33.2182C43.1442 33.4086 43.4025 33.5156 43.6719 33.5156H47.7344C47.8106 33.5154 47.8865 33.5067 47.9607 33.4895C46.4286 34.626 44.7752 35.5893 43.0309 36.3616L41.5851 32.1689C41.5162 31.9691 41.3867 31.7958 41.2146 31.6731C41.0425 31.5503 40.8364 31.4844 40.625 31.4844H24.375C24.1636 31.4844 23.9575 31.5503 23.7854 31.6731C23.6133 31.7958 23.4838 31.9691 23.4149 32.1689L21.9691 36.3616C20.2248 35.5892 18.5714 34.626 17.0393 33.4895C17.1135 33.5067 17.1894 33.5154 17.2656 33.5156ZM41.1411 37.1126C35.5496 39.0875 29.4503 39.0875 23.8588 37.1126L25.0986 33.5156H39.9014L41.1411 37.1126ZM6.09375 56.875V30.4688H8.125V56.875H6.09375ZM5.07813 26.4063H9.14063C9.40999 26.4063 9.66832 26.5133 9.85878 26.7037C10.0492 26.8942 10.1563 27.1525 10.1563 27.4219C10.1563 27.6913 10.0492 27.9496 9.85878 28.1401C9.66832 28.3305 9.40999 28.4375 9.14063 28.4375H5.07813C4.80877 28.4375 4.55044 28.3305 4.35997 28.1401C4.16951 27.9496 4.0625 27.6913 4.0625 27.4219C4.0625 27.1525 4.16951 26.8942 4.35997 26.7037C4.55044 26.5133 4.80877 26.4063 5.07813 26.4063ZM7.10938 18.2813C7.71199 18.2813 8.30107 18.46 8.80213 18.7948C9.30319 19.1296 9.69371 19.6054 9.92432 20.1622C10.1549 20.7189 10.2153 21.3315 10.0977 21.9226C9.98014 22.5136 9.68996 23.0565 9.26384 23.4826C8.83773 23.9087 8.29483 24.1989 7.70379 24.3165C7.11276 24.434 6.50013 24.3737 5.94339 24.1431C5.38665 23.9125 4.91079 23.522 4.57599 23.0209C4.2412 22.5198 4.0625 21.9308 4.0625 21.3281C4.06344 20.5204 4.38475 19.7459 4.95595 19.1747C5.52715 18.6035 6.30158 18.2822 7.10938 18.2813ZM10.1563 60.9375H4.0625V59.9092C4.06284 59.6433 4.16861 59.3884 4.35663 59.2004C4.54464 59.0124 4.79954 58.9066 5.06543 58.9063H9.15332C9.41921 58.9066 9.67412 59.0124 9.86213 59.2004C10.0501 59.3884 10.1559 59.6433 10.1563 59.9092V60.9375ZM15.6433 60.9375L21.904 42.7816C28.7394 45.3228 36.2606 45.3228 43.096 42.7816L49.3567 60.9375H15.6433ZM52.5867 34.3359C49.9488 36.9738 46.8172 39.0663 43.3706 40.4939C39.924 41.9215 36.23 42.6563 32.4995 42.6563C28.769 42.6563 25.075 41.9215 21.6284 40.4939C18.1818 39.0663 15.0502 36.9738 12.4123 34.3359L10.1563 32.0793V30.2941C10.2574 30.2583 10.3566 30.2172 10.4535 30.1711L12.7102 32.4279C17.9588 37.6764 25.0774 40.625 32.5 40.625C39.9226 40.625 47.0412 37.6764 52.2898 32.4279L54.5466 30.1711C54.6434 30.2172 54.7426 30.2583 54.8438 30.2941V32.0793L52.5867 34.3359ZM60.9375 60.9375H54.8438V59.9092C54.8441 59.6433 54.9499 59.3884 55.1379 59.2004C55.3259 59.0124 55.5808 58.9066 55.8467 58.9063H59.9346C60.2005 58.9066 60.4554 59.0124 60.6434 59.2004C60.8314 59.3884 60.9372 59.6433 60.9375 59.9092V60.9375ZM59.9219 28.4375H55.8594C55.59 28.4375 55.3317 28.3305 55.1412 28.1401C54.9508 27.9496 54.8438 27.6913 54.8438 27.4219C54.8438 27.1525 54.9508 26.8942 55.1412 26.7037C55.3317 26.5133 55.59 26.4063 55.8594 26.4063H59.9219C60.1912 26.4063 60.4496 26.5133 60.64 26.7037C60.8305 26.8942 60.9375 27.1525 60.9375 27.4219C60.9375 27.6913 60.8305 27.9496 60.64 28.1401C60.4496 28.3305 60.1912 28.4375 59.9219 28.4375Z" fill="#C956D7"/>
<path d="M24.375 4.0625H26.4062V6.09375H24.375V4.0625Z" fill="#C956D7"/>
<path d="M28.4375 4.0625H30.4688V6.09375H28.4375V4.0625Z" fill="#C956D7"/>
<path d="M26.4062 2.03125H28.4375V4.0625H26.4062V2.03125Z" fill="#C956D7"/>
<path d="M26.4062 6.09375H28.4375V8.125H26.4062V6.09375Z" fill="#C956D7"/>
<path d="M26.4062 15.2344H28.4375V17.2656H26.4062V15.2344Z" fill="#C956D7"/>
<path d="M48.75 4.0625H50.7812V6.09375H48.75V4.0625Z" fill="#C956D7"/>
<path d="M15.2344 5.07812H17.2656V7.10938H15.2344V5.07812Z" fill="#C956D7"/>
</svg>
