<svg width="68" height="68" viewBox="0 0 68 68" fill="none" xmlns="http://www.w3.org/2000/svg">
<circle cx="51.2462" cy="56.6163" r="6.54303" fill="#C956D7"/>
<path d="M48.9922 52.6343C48.6688 52.6343 48.4062 52.9023 48.4062 53.2333V60.0015C48.4062 60.3317 48.6688 60.5997 48.9922 60.5997H53.5082C54.0594 60.5997 54.3054 59.8941 53.8794 59.5382L50.9359 57.0807C50.6491 56.8411 50.6491 56.3938 50.9359 56.1542L53.8794 53.6966C54.3062 53.3407 54.0594 52.6352 53.5082 52.6352H48.9922V52.6343Z" fill="#F9F8F4"/>
<path d="M20.4167 43.7739C17.3611 44.5766 9.91667 47.3059 4.58333 51.801C3.47222 52.8713 1.25 55.8146 1.25 59.0254C1.25 62.2363 1.25 65.1796 1.25 66.2498H66.25V59.0254C66.25 57.42 65.5833 53.7275 62.9167 51.801C59.5833 49.3929 54.5833 46.1821 47.0833 43.7739" stroke="#C956D7" stroke-width="2.5" stroke-linejoin="round"/>
<path d="M33.7552 48.5901L23.7552 40.563L20.4219 42.9711L25.4219 55.0118L33.7552 48.5901ZM33.7552 48.5901L42.9219 40.563L46.2552 42.9711L41.2552 55.0118L33.7552 48.5901Z" stroke="#C956D7" stroke-width="2.5" stroke-linejoin="round"/>
<path d="M45.1458 20.7221C44.8277 21.3348 45.0666 22.0893 45.6793 22.4074C46.2921 22.7254 47.0466 22.4866 47.3647 21.8738L46.2552 21.298L45.1458 20.7221ZM23.7552 4.44102L22.9815 3.45927C22.8838 3.53625 22.7982 3.62737 22.7274 3.72963L23.7552 4.44102ZM15.4219 13.2706L14.8795 12.1444C14.4826 12.3355 14.2156 12.7215 14.1768 13.1602C14.1379 13.599 14.3328 14.0259 14.6899 14.2838L15.4219 13.2706ZM18.7552 15.6787L19.9948 15.8396C20.0538 15.3847 19.859 14.9341 19.4872 14.6655L18.7552 15.6787ZM46.2552 21.298L47.3647 21.8738C48.3195 20.0343 49.72 15.223 48.2985 9.74598L47.0885 10.06L45.8786 10.374C47.1238 15.1716 45.8576 19.3508 45.1458 20.7221L46.2552 21.298ZM47.0885 10.06L48.2985 9.74598C47.3204 5.97741 43.3402 2.53019 38.6325 0.948328C33.84 -0.662042 27.962 -0.465934 22.9815 3.45927L23.7552 4.44102L24.5289 5.42277C28.7151 2.12357 33.6704 1.91832 37.8362 3.31812C42.0869 4.74643 45.19 7.72089 45.8786 10.374L47.0885 10.06ZM23.7552 4.44102L22.7274 3.72963C21.9168 4.90074 20.5302 6.74706 19.0266 8.4498C17.4784 10.203 15.9594 11.6243 14.8795 12.1444L15.4219 13.2706L15.9643 14.3968C17.551 13.6326 19.3653 11.8431 20.9005 10.1046C22.4802 8.31563 23.9269 6.38935 24.783 5.1524L23.7552 4.44102ZM15.4219 13.2706L14.6899 14.2838L18.0232 16.692L18.7552 15.6787L19.4872 14.6655L16.1539 12.2573L15.4219 13.2706ZM18.7552 15.6787L17.5156 15.5179C17.3667 16.6653 17.2763 18.4616 17.4944 20.1715C17.6036 21.0272 17.7959 21.9102 18.1265 22.6957C18.4544 23.4747 18.9585 24.2516 19.7464 24.7576L20.4219 23.7058L21.0973 22.654C20.8853 22.5179 20.6462 22.2378 20.4307 21.7258C20.218 21.2203 20.0666 20.5782 19.9743 19.8552C19.7897 18.4078 19.8659 16.8327 19.9948 15.8396L18.7552 15.6787Z" fill="#C956D7"/>
<path d="M21.2541 27.7188C19.9208 23.2236 22.9208 18.889 24.5875 17.2836C31.9197 19.2101 38.199 15.4106 40.4222 13.27C44.5889 16.4809 47.0889 20.4944 46.2555 27.7188C45.4222 34.9432 41.2555 37.3514 37.0889 39.7595C33.7555 41.686 31.2555 40.5622 30.4222 39.7595C22.9222 34.9432 22.0889 30.533 21.2541 27.7188Z" stroke="#C956D7" stroke-width="2.5" stroke-linejoin="round"/>
</svg>
